<svg width="37" height="29" viewBox="0 0 37 29" fill="none" xmlns="http://www.w3.org/2000/svg">
<path id="Vector" d="M18.1501 3.98215L18.2959 4.125H18.5H33.3C35.0686 4.125 36.5 5.542 36.5 7.25V25.375C36.5 27.083 35.0686 28.5 33.3 28.5H3.7C1.93151 28.5 0.500116 27.0831 0.5 25.3752C0.5 25.3751 0.5 25.3751 0.5 25.375L0.5185 3.62543V3.625C0.5185 1.91376 1.93473 0.5 3.7 0.5H13.2645C14.1155 0.5 14.933 0.830258 15.5416 1.42653L18.1501 3.98215ZM12.4257 20.8429L12.4258 20.8429L12.4304 20.8384L18.9794 14.4222C19.1976 14.2084 19.3712 13.9541 19.4899 13.6734C19.6085 13.3928 19.6697 13.0916 19.6697 12.7872C19.6697 12.4828 19.6085 12.1816 19.4899 11.9009C19.3712 11.6203 19.1976 11.366 18.9794 11.1522C18.7613 10.9385 18.5028 10.7695 18.2191 10.6543C17.9354 10.5392 17.6317 10.4801 17.3253 10.4801C17.0188 10.4801 16.7151 10.5392 16.4314 10.6543C16.1477 10.7695 15.8892 10.9385 15.6711 11.1522L10.7855 15.9388L9.82192 14.9947C9.38149 14.5632 8.78628 14.3226 8.16775 14.3226C7.54922 14.3226 6.95401 14.5632 6.51359 14.9947C6.07281 15.4266 5.82326 16.0145 5.82326 16.6297C5.82326 17.2449 6.07281 17.8328 6.51359 18.2647L9.12208 20.8203C10.0373 21.7169 11.5103 21.7168 12.4257 20.8429ZM30.9969 18.2991L30.5363 18.4938L30.9969 18.2991C30.8782 18.0184 30.7046 17.7641 30.4864 17.5503L29.223 16.3125L30.4864 15.0747C30.7046 14.8609 30.8782 14.6066 30.9969 14.3259L30.5363 14.1312L30.9969 14.3259C31.1155 14.0453 31.1767 13.7441 31.1767 13.4397C31.1767 13.1353 31.1155 12.8341 30.9969 12.5534C30.8782 12.2728 30.7046 12.0185 30.4864 11.8047C30.2683 11.591 30.0098 11.422 29.7261 11.3068C29.4424 11.1917 29.1387 11.1326 28.8322 11.1326C28.5258 11.1326 28.2221 11.1917 27.9384 11.3068C27.6547 11.422 27.3962 11.591 27.1781 11.8047L25.9 13.0569L24.6219 11.8047C24.4038 11.591 24.1453 11.422 23.8616 11.3068C23.5779 11.1917 23.2742 11.1326 22.9678 11.1326C22.6613 11.1326 22.3576 11.1917 22.0739 11.3068C21.7902 11.422 21.5317 11.591 21.3136 11.8047L21.6635 12.1619L21.3136 11.8047C21.0954 12.0185 20.9218 12.2728 20.8031 12.5534C20.6845 12.8341 20.6233 13.1353 20.6233 13.4397C20.6233 13.7441 20.6845 14.0453 20.8031 14.3259L21.2637 14.1312L20.8031 14.3259C20.9218 14.6066 21.0954 14.8609 21.3136 15.0747L22.577 16.3125L21.3136 17.5503C21.0954 17.7641 20.9218 18.0184 20.8031 18.2991L21.2637 18.4938L20.8031 18.2991C20.6845 18.5797 20.6233 18.8809 20.6233 19.1853C20.6233 19.4897 20.6845 19.7909 20.8031 20.0716L21.2637 19.8769L20.8031 20.0716C20.9218 20.3522 21.0954 20.6065 21.3136 20.8203C21.5317 21.034 21.7902 21.203 22.0739 21.3182L22.2619 20.8549L22.0739 21.3182C22.3576 21.4333 22.6613 21.4924 22.9678 21.4924C23.2742 21.4924 23.5779 21.4333 23.8616 21.3182L23.6736 20.8549L23.8616 21.3182C24.1453 21.203 24.4038 21.034 24.6219 20.8203L25.9 19.5681L27.1781 20.8203C27.3962 21.034 27.6547 21.203 27.9384 21.3182L28.1264 20.8549L27.9384 21.3182C28.2221 21.4333 28.5258 21.4924 28.8322 21.4924C29.1387 21.4924 29.4424 21.4333 29.7261 21.3182L29.5381 20.8549L29.7261 21.3182C30.0098 21.203 30.2683 21.034 30.4864 20.8203C30.7046 20.6065 30.8782 20.3522 30.9969 20.0716L30.5363 19.8769L30.9969 20.0716C31.1155 19.7909 31.1767 19.4897 31.1767 19.1853C31.1767 18.8809 31.1155 18.5797 30.9969 18.2991Z" fill="#5CE1E6" stroke="#B4ABED"/>
</svg>
