<svg width="35" height="35" viewBox="0 0 35 35" fill="none" xmlns="http://www.w3.org/2000/svg">
<g id="fluent:send-32-regular">
<path id="Vector" d="M2.27282 4.33672C1.82767 2.95313 3.26813 1.71719 4.5686 2.36688L31.9058 16.0333C33.1155 16.6381 33.1155 18.363 31.9058 18.9689L4.5686 32.6353C3.26923 33.285 1.82767 32.0491 2.27282 30.6655L6.50782 17.5011L2.27282 4.33672ZM8.45251 18.5949L4.75454 30.0967L29.9513 17.5011L4.75345 4.90547L8.4547 16.4063H20.7813C21.0713 16.4063 21.3495 16.5215 21.5547 16.7266C21.7598 16.9317 21.875 17.2099 21.875 17.5C21.875 17.7901 21.7598 18.0683 21.5547 18.2734C21.3495 18.4785 21.0713 18.5938 20.7813 18.5938H8.4547L8.45251 18.5949Z" fill="#10CD5C"/>
</g>
</svg>
